# xmcd
#
# Track frame offsets: 
#        150
#        14836
#        27169
#        42766
#        55482
#        72186
#        83782
#        95147
#        106933
#        119953
#        132064
#        146538
#
# Disc length: 2119 seconds
#
# Revision: 0
# Processed by: cddbd v1.5.2PL0 Copyright (c) Steve Scherf et al.
# Submitted via: ExactAudioCopy v0.99pb5
#
DISCID=ad08450c
DTITLE=The Steep Canyon Rangers - Deep In The Shade
DYEAR=2009
DGENRE=Bluegrass
TTITLE0=Have Mercy
TTITLE1=I Thought That She Loved Me
TTITLE2=The Mountain's Gonna Sing
TTITLE3=Turn Up The Bottle
TTITLE4=Nowhere To Lay Low
TTITLE5=Sylvie
TTITLE6=There Ain't No Easy Street
TTITLE7=Mourning Dove
TTITLE8=I Must Be Somebody Else You've Known
TTITLE9=Shades Of Gray
TTITLE10=Heartbreak Is Real
TTITLE11=Hollerin' House
EXTD=
EXTT0=
EXTT1=
EXTT2=
EXTT3=
EXTT4=
EXTT5=
EXTT6=
EXTT7=
EXTT8=
EXTT9=
EXTT10=
EXTT11=
PLAYORDER=
